<svg width="64" height="24" viewBox="0 0 64 24" fill="none" xmlns="http://www.w3.org/2000/svg">
<path d="M0.464 24V0.159998H8.272C10.7467 0.159998 12.8907 0.661332 14.704 1.664C16.5387 2.64533 17.9573 4.032 18.96 5.824C19.9627 7.616 20.464 9.696 20.464 12.064C20.464 14.4107 19.9627 16.4907 18.96 18.304C17.9573 20.096 16.5387 21.4933 14.704 22.496C12.8907 23.4987 10.7467 24 8.272 24H0.464ZM4.24 20.64H8.336C10.0213 20.64 11.4827 20.288 12.72 19.584C13.9787 18.88 14.9493 17.888 15.632 16.608C16.3147 15.328 16.656 13.8133 16.656 12.064C16.656 10.3147 16.304 8.81067 15.6 7.552C14.9173 6.272 13.9573 5.28 12.72 4.576C11.4827 3.872 10.0213 3.52 8.336 3.52H4.24V20.64ZM23.2228 24V0.159998H26.2628L39.6388 18.624L38.1988 18.848V0.159998H41.9428V24H38.9028L25.6228 5.408L26.9988 5.152V24H23.2228ZM43.807 24L51.583 11.936L43.935 0.159998H48.223L54.623 10.016H52.799L59.135 0.159998H63.423L55.807 11.936L63.583 24H59.295L52.799 13.888L54.623 13.92L48.063 24H43.807Z" fill="#141522"/>
</svg>
