<svg width="40" height="40" viewBox="0 0 40 40" fill="none" xmlns="http://www.w3.org/2000/svg">
<path d="M26.9834 3.33301H13.0167C6.95004 3.33301 3.33337 6.94967 3.33337 13.0163V26.9663C3.33337 33.0497 6.95004 36.6663 13.0167 36.6663H26.9667C33.0334 36.6663 36.65 33.0497 36.65 26.983V13.0163C36.6667 6.94967 33.05 3.33301 26.9834 3.33301ZM19.1667 28.7497C19.1667 29.3497 18.5667 29.7497 18.0167 29.5163C16 28.6497 13.3667 27.8497 11.5334 27.6163L11.2167 27.583C10.2 27.4497 9.36671 26.4997 9.36671 25.4663V12.633C9.36671 11.3497 10.4 10.3997 11.6667 10.4997C13.75 10.6663 16.8334 11.6663 18.7667 12.7663C19.0334 12.9163 19.1667 13.1997 19.1667 13.483V28.7497ZM30.6334 25.4497C30.6334 26.483 29.8 27.433 28.7834 27.5663L28.4334 27.5997C26.6167 27.8497 24 28.633 21.9834 29.483C21.4334 29.7163 20.8334 29.3163 20.8334 28.7163V13.4663C20.8334 13.1663 20.9834 12.883 21.25 12.733C23.1834 11.6497 26.2 10.683 28.25 10.4997H28.3167C29.6 10.4997 30.6334 11.533 30.6334 12.8163V25.4497Z" fill="#546FFF"/>
</svg>
